{
  "asset": {
    "generator": "Khronos glTF Blender I/O v3.2.43",
    "version": "2.0"
  },
  "scene": 0,
  "scenes": [
    {
      "name": "Scene",
      "nodes": [
        0
      ]
    }
  ],
  "nodes": [
    {
      "mesh": 0,
      "name": "sphere_gltf"
    }
  ],
  "materials": [
    {
      "doubleSided": true,
      "name": "brushed_concrete_03",
      "normalTexture": {
        "index": 0
      },
      "pbrMetallicRoughness": {
        "baseColorTexture": {
          "index": 1
        },
        "metallicFactor": 0,
        "metallicRoughnessTexture": {
          "index": 2
        }
      }
    }
  ],
  "meshes": [
    {
      "name": "Sphere.001",
      "primitives": [
        {
          "attributes": {
            "POSITION": 0,
            "NORMAL": 1,
            "TEXCOORD_0": 2
          },
          "indices": 3,
          "material": 0
        }
      ]
    }
  ],
  "textures": [
    {
      "sampler": 0,
      "source": 0
    },
    {
      "sampler": 0,
      "source": 1
    },
    {
      "sampler": 0,
      "source": 2
    }
  ],
  "images": [
    {
      "mimeType": "image/jpeg",
      "name": "brushed_concrete_03_nor_gl",
      "uri": "textures/brushed_concrete_03_nor_gl_1k.jpg"
    },
    {
      "mimeType": "image/jpeg",
      "name": "brushed_concrete_03_diff",
      "uri": "textures/brushed_concrete_03_diff_1k.jpg"
    },
    {
      "mimeType": "image/jpeg",
      "name": "brushed_concrete_03_rough",
      "uri": "textures/brushed_concrete_03_arm_1k.jpg"
    }
  ],
  "accessors": [
    {
      "bufferView": 0,
      "componentType": 5126,
      "count": 53982,
      "max": [
        1.0010710954666138,
        1.0001373291015625,
        1.000199317932129
      ],
      "min": [
        -1.0010709762573242,
        -1.0006263256072998,
        -1.000201940536499
      ],
      "type": "VEC3"
    },
    {
      "bufferView": 1,
      "componentType": 5126,
      "count": 53982,
      "type": "VEC3"
    },
    {
      "bufferView": 2,
      "componentType": 5126,
      "count": 53982,
      "type": "VEC2"
    },
    {
      "bufferView": 3,
      "componentType": 5123,
      "count": 322170,
      "type": "SCALAR"
    }
  ],
  "bufferViews": [
    {
      "buffer": 0,
      "byteLength": 647784,
      "byteOffset": 0
    },
    {
      "buffer": 0,
      "byteLength": 647784,
      "byteOffset": 647784
    },
    {
      "buffer": 0,
      "byteLength": 431856,
      "byteOffset": 1295568
    },
    {
      "buffer": 0,
      "byteLength": 644340,
      "byteOffset": 1727424
    }
  ],
  "samplers": [
    {
      "magFilter": 9729,
      "minFilter": 9987
    }
  ],
  "buffers": [
    {
      "byteLength": 2371764,
      "uri": "brushed_concrete_03.bin"
    }
  ]
}